# Blender v2.76 (sub 0) OBJ File: ''
# www.blender.org
mtllib bblock.mtl
o bblock
v 1.000000 -0.800000 -0.800000
v 0.800000 -1.000000 -0.800000
v 0.800000 -0.800000 -1.000000
v 1.000000 -0.800000 0.800000
v 0.800000 -0.800000 1.000000
v 0.800000 -1.000000 0.800000
v -0.800000 -0.800000 1.000000
v -1.000000 -0.800000 0.800000
v -0.800000 -1.000000 0.800000
v -0.800000 -0.800000 -1.000000
v -0.800000 -1.000000 -0.800000
v -1.000000 -0.800000 -0.800000
v 0.800000 0.800000 -1.000000
v 0.800000 1.000000 -0.800000
v 1.000000 0.800000 -0.800000
v 0.799999 0.800000 1.000000
v 1.000000 0.800000 0.800001
v 0.799999 1.000000 0.800001
v -1.000000 0.800000 0.800000
v -0.800000 0.800000 1.000000
v -0.800000 1.000000 0.800000
v -1.000000 0.800000 -0.800000
v -0.800000 1.000000 -0.800000
v -0.800000 0.800000 -1.000000
vn 0.000000 0.000000 -1.000000
vn -0.000000 0.000000 1.000000
vn -1.000000 -0.000000 -0.000000
vn 0.000000 1.000000 -0.000000
vn 1.000000 0.000000 0.000000
vn 0.577400 -0.577400 -0.577300
vn 0.577400 -0.577400 0.577300
vn -0.577400 -0.577400 0.577300
vn -0.577400 -0.577400 -0.577300
vn 0.577400 0.577400 -0.577300
vn 0.577300 0.577300 0.577400
vn -0.577400 0.577400 0.577400
vn -0.577400 0.577400 -0.577400
vn 0.707100 -0.707100 0.000000
vn 0.000000 -0.707100 -0.707100
vn 0.707100 0.000000 -0.707100
vn -0.000000 -0.707100 0.707100
vn 0.707100 0.000000 0.707100
vn -0.707100 -0.707100 -0.000000
vn -0.707100 0.000000 0.707100
vn -0.707100 0.000000 -0.707100
vn 0.707100 0.707100 0.000000
vn 0.000000 0.707100 -0.707100
vn -0.000000 0.707100 0.707100
vn -0.707100 0.707100 -0.000000
vn 0.000000 -1.000000 -0.000000
usemtl BBlockMTL
s off
f 3//1 10//1 24//1
f 13//1 3//1 24//1
f 16//2 20//2 7//2
f 8//3 19//3 22//3
f 23//4 21//4 18//4
f 15//5 17//5 4//5
f 1//6 2//6 3//6
f 4//7 5//7 6//7
f 7//8 8//8 9//8
f 10//9 11//9 12//9
f 13//10 14//10 15//10
f 16//11 17//11 18//11
f 19//12 20//12 21//12
f 22//13 23//13 24//13
f 4//14 6//14 2//14
f 11//15 10//15 3//15
f 13//16 15//16 1//16
f 5//17 7//17 9//17
f 17//18 16//18 5//18
f 12//19 11//19 9//19
f 20//20 19//20 8//20
f 22//21 24//21 10//21
f 18//22 17//22 15//22
f 24//23 23//23 14//23
f 21//24 20//24 16//24
f 23//25 22//25 19//25
f 6//26 9//26 11//26
f 5//2 16//2 7//2
f 12//3 8//3 22//3
f 14//4 23//4 18//4
f 1//5 15//5 4//5
f 1//14 4//14 2//14
f 2//15 11//15 3//15
f 3//16 13//16 1//16
f 6//17 5//17 9//17
f 4//18 17//18 5//18
f 8//19 12//19 9//19
f 7//20 20//20 8//20
f 12//21 22//21 10//21
f 14//22 18//22 15//22
f 13//23 24//23 14//23
f 18//24 21//24 16//24
f 21//25 23//25 19//25
f 2//26 6//26 11//26
